<svg id="Capa_1" enable-background="new 0 0 496.065 496.065" height="512" viewBox="0 0 496.065 496.065" width="512" xmlns="http://www.w3.org/2000/svg"><g><path d="m320.698 82.445c-3.729-.73-6.399-4.031-6.399-7.831v-9.353c0-18.299-13.834-33.133-32.133-33.133-.64-.594-.993-1.424-1.028-2.296-.589-14.437-10.464-25.873-23.827-29.532-4.449-1.218-9.059 1.382-10.046 5.888-3.117 14.224-15.375 25.023-30.305 25.94h-2.06c-18.299 0-33.133 14.834-33.133 33.133v9.353c0 3.8-2.669 7.101-6.399 7.831-15.237 2.981-26.734 16.406-26.734 32.516v16.637c0 9.15 7.417 16.567 16.567 16.567v11.9h165.667v-11.9c9.15 0 16.567-7.417 16.567-16.567v-16.637c-.002-16.11-11.5-29.534-26.737-32.516z" fill="#966a5b"/><g fill="#8a5a51"><path d="m320.698 82.445c-3.729-.73-6.399-4.031-6.399-7.831v-9.353c0-18.299-13.834-33.133-32.133-33.133-.64-.594-.993-1.424-1.028-2.296-.589-14.437-10.464-25.873-23.827-29.532-4.449-1.218-9.059 1.382-10.046 5.888-.062.283-.134.562-.203.842 6.488 5.531 10.699 13.542 11.076 22.802.035.873.389 1.702 1.028 2.296 18.299 0 32.133 14.834 32.133 33.133v9.353c0 3.8 2.669 7.101 6.399 7.831 15.237 2.981 26.735 16.406 26.735 32.516v16.637c0 9.15-7.417 16.567-16.567 16.567v11.9h23v-11.9c9.15 0 16.567-7.417 16.567-16.567v-16.637c0-16.11-11.498-29.534-26.735-32.516z"/><path d="m214.69 82.495c4.142 0 7.5-3.358 7.5-7.5s-3.358-7.5-7.5-7.5h-32.925v7.12c0 3.8-2.669 7.101-6.399 7.831-.076.015-.15.034-.226.049z"/><path d="m264.391 67.495c-4.143 0-7.5 3.358-7.5 7.5s3.357 7.5 7.5 7.5h56.533c-.076-.015-.15-.034-.226-.049-3.729-.73-6.399-4.031-6.399-7.831v-7.12z"/></g><path d="m297.733 148.163h33.133c18.299 0 33.133 14.834 33.133 33.133v33.136c0 9.149-7.417 16.567-16.567 16.567v9.067h-198.8v-9.067c-9.15 0-16.567-7.417-16.567-16.567v-33.136c0-18.299 14.834-33.133 33.133-33.133h82.833" fill="#faf8fa"/><path d="m330.866 148.163h-23c18.299 0 33.133 14.834 33.133 33.133v33.136c0 9.15-7.417 16.567-16.567 16.567v9.067h23v-9.067c9.15 0 16.567-7.417 16.567-16.567v-33.136c0-18.299-14.834-33.133-33.133-33.133z" fill="#eceaec"/><path d="m330.866 346.965-14.929 134.363c-.932 8.39-8.024 14.737-16.465 14.737h-102.878c-8.441 0-15.533-6.347-16.465-14.737l-14.929-134.363v-14.9h165.68z" fill="#f4dbb3"/><g><g><path d="m281.166 470.432h-66.267c-4.142 0-7.5-3.358-7.5-7.5s3.358-7.5 7.5-7.5h66.267c4.143 0 7.5 3.358 7.5 7.5s-3.357 7.5-7.5 7.5z" fill="#eac89f"/></g></g><path d="m307.866 332.065-.014 14.9-14.929 134.363c-.932 8.39-8.024 14.737-16.465 14.737h23.014c8.441 0 15.533-6.347 16.465-14.737l14.929-134.363.014-14.9z" fill="#eac89f"/><g><path d="m327.184 387.598h-158.303c-4.142 0-7.5-3.358-7.5-7.5s3.358-7.5 7.5-7.5h158.303c4.142 0 7.5 3.358 7.5 7.5s-3.358 7.5-7.5 7.5z" fill="#eac89f"/></g><path d="m372.566 264.194h-249.067c-4.418 0-8-3.582-8-8v-17.133c0-4.418 3.582-8 8-8h249.067c4.418 0 8 3.582 8 8v17.133c0 4.419-3.582 8-8 8z" fill="#e6dedd"/><path d="m363.999 264.194-13.902 69.455c-1.55 7.742-8.348 13.315-16.245 13.315h-171.64c-7.896 0-14.695-5.573-16.245-13.315l-13.902-69.455v-7.629h231.933v7.629z" fill="#f4dbb3"/><path d="m340.999 256.565h-208.933v7.629l4.604 23h189.967c5.049 0 8.835 4.619 7.844 9.57l-7.383 36.885c-1.55 7.742-8.348 13.315-16.245 13.315h23c7.896 0 14.695-5.573 16.245-13.315l13.902-69.455v-7.629z" fill="#eac89f"/><g><g><path d="m214.899 321.332h-33.133c-4.142 0-7.5-3.358-7.5-7.5s3.358-7.5 7.5-7.5h33.133c4.142 0 7.5 3.358 7.5 7.5s-3.358 7.5-7.5 7.5z" fill="#eac89f"/></g></g><path d="m372.566 264.194h-249.067c-4.418 0-8-3.582-8-8v-17.133c0-4.418 3.582-8 8-8h249.067c4.418 0 8 3.582 8 8v17.133c0 4.419-3.582 8-8 8z" fill="#f4dbb3"/><path d="m372.566 231.061h-23c4.418 0 8 3.582 8 8v17.133c0 4.418-3.582 8-8 8h23c4.418 0 8-3.582 8-8v-17.133c0-4.418-3.582-8-8-8z" fill="#eac89f"/></g></svg>