<svg id="Capa_1" enable-background="new 0 0 512 512" height="512" viewBox="0 0 512 512" width="512" xmlns="http://www.w3.org/2000/svg"><g><path d="m156.09 358.905 23.226 93.18c8.776 35.207 40.399 59.915 76.684 59.915 36.285 0 67.908-24.708 76.684-59.916l23.226-93.18-99.91-27.197z" fill="#d3918a"/><path d="m204.561 345.71-48.471 13.195 23.226 93.18c8.776 35.207 40.399 59.915 76.684 59.915 6.249 0 12.355-.749 18.235-2.142-44.303-37.198-69.46-98.768-69.674-164.148z" fill="#cb827c"/><path d="m116.344 270.538v48.62c0 21.951 17.795 39.746 39.746 39.746h199.82c21.951 0 39.746-17.795 39.746-39.746v-48.62z" fill="#e5b2ae"/><path d="m204.553 344.868c0-26.367 5.346-51.485 15.014-74.33h-103.223v48.62c0 21.951 17.795 39.746 39.746 39.746h48.853c-.255-4.654-.39-9.335-.39-14.036z" fill="#d3918a"/><path d="m256 78.734c-92.611 0-167.687 75.076-167.687 167.687v11.082c0 18.346 11.021 34.897 27.948 41.971 17.882 7.474 38.013 7.474 55.896 0s38.013-7.474 55.896 0 38.013 7.474 55.896 0c17.882-7.474 38.013-7.474 55.896 0 17.882 7.474 38.013 7.474 55.896 0 16.927-7.075 27.948-23.625 27.948-41.971v-11.082c-.002-92.611-75.078-167.687-167.689-167.687z" fill="#fae09d"/><path d="m206.36 118.829v-32.623c-68.376 21.161-118.047 84.886-118.047 160.215v11.082c0 18.346 11.021 34.896 27.948 41.971 16.412 6.859 34.714 7.404 51.438 1.673-13.837-20.681-21.91-45.545-21.91-72.296-.001-46.295 24.168-86.941 60.571-110.022z" fill="#fdcb71"/><path d="m256 0c-80.657 0-146.042 65.385-146.042 146.041v9.652c0 15.978 9.598 30.392 24.34 36.554 15.574 6.509 33.106 6.509 48.681 0 15.574-6.509 33.106-6.509 48.681 0 15.574 6.509 33.106 6.509 48.681 0 15.574-6.509 33.106-6.509 48.681 0 15.574 6.509 33.106 6.509 48.681 0 14.742-6.162 24.34-20.576 24.34-36.554v-9.652c-.001-80.656-65.386-146.041-146.043-146.041z" fill="#fdb2bd"/><path d="m146.093 159.788c0-64.38 40.122-131.556 96.724-159.189-74.478 6.665-132.859 69.231-132.859 145.443v9.651c0 15.978 9.598 30.392 24.34 36.554 5.26 2.199 10.746 3.636 16.302 4.35-2.938-11.786-4.507-24.114-4.507-36.809z" fill="#fd8b9b"/><g><path d="m208.067 100.95c-4.267 0-7.726-3.459-7.726-7.726 0-3.358-2.732-6.089-6.09-6.089s-6.089 2.732-6.089 6.089c0 4.267-3.459 7.726-7.726 7.726s-7.726-3.459-7.726-7.726c0-11.878 9.663-21.542 21.542-21.542s21.542 9.664 21.542 21.542c-.001 4.267-3.46 7.726-7.727 7.726z" fill="#303646"/></g><g><path d="m331.565 100.95c-4.267 0-7.726-3.459-7.726-7.726 0-3.358-2.731-6.089-6.089-6.089s-6.09 2.732-6.09 6.089c0 4.267-3.459 7.726-7.726 7.726s-7.726-3.459-7.726-7.726c0-11.878 9.664-21.542 21.542-21.542s21.542 9.664 21.542 21.542c-.001 4.267-3.46 7.726-7.727 7.726z" fill="#303646"/></g><g><path d="m256 123.774c-7.85 0-15.314-3.399-20.48-9.327-2.803-3.217-2.468-8.097.748-10.901 3.217-2.804 8.098-2.469 10.901.748 2.23 2.559 5.448 4.026 8.83 4.026s6.601-1.468 8.83-4.026c2.803-3.217 7.684-3.552 10.901-.748s3.552 7.684.748 10.901c-5.164 5.928-12.628 9.327-20.478 9.327z" fill="#303646"/></g></g></svg>