<svg id="color_line" height="512" viewBox="0 0 74 74" width="512" xmlns="http://www.w3.org/2000/svg" data-name="color line"><path d="m50.517 57.112h-22.673a5.264 5.264 0 0 1 -5.258-5.512l1.914-41.142a5.264 5.264 0 0 1 5.258-5.02h18.85a5.264 5.264 0 0 1 5.258 5.02l1.909 41.142a5.264 5.264 0 0 1 -5.258 5.512z" fill="#fac2c3"/><path d="m55.771 51.608a5.24 5.24 0 0 1 -3.73 5.27 5.017 5.017 0 0 0 .19-1.65l-1.91-41.14a5.268 5.268 0 0 0 -5.26-5.03h-18.85a5.422 5.422 0 0 0 -1.52.22 5.25 5.25 0 0 1 5.06-3.84h18.86a5.266 5.266 0 0 1 5.26 5.02z" fill="#f69d9f"/><path d="m29.682 49.624c-.021 0-.042 0-.064 0a1 1 0 0 1 -.935-1.06l2.2-35.187a1 1 0 0 1 2 .125l-2.2 35.187a1 1 0 0 1 -1.001.935z" fill="#f69d9f"/><path d="m48.3 49.624a1 1 0 0 1 -1-.937l-2.2-35.187a1 1 0 0 1 2-.125l2.2 35.187a1 1 0 0 1 -.935 1.06c-.021.002-.042.002-.065.002z" fill="#f69d9f"/><path d="m35.636 57.112h7.088v15.326h-7.088z" fill="#fcd462"/><path d="m42.725 72.938h-7.089a.5.5 0 0 1 -.5-.5v-15.326a.5.5 0 0 1 .5-.5h7.089a.5.5 0 0 1 .5.5v15.326a.5.5 0 0 1 -.5.5zm-6.589-1h6.089v-14.326h-6.089z" fill="#323c6b"/><path d="m38.992 49.624a1 1 0 0 1 -1-1v-35.186a1 1 0 0 1 2 0v35.186a1 1 0 0 1 -1 1z" fill="#f69d9f"/><g fill="#323c6b"><path d="m50.517 57.612h-22.673a5.763 5.763 0 0 1 -5.758-6.031l1.914-41.146a5.756 5.756 0 0 1 5.757-5.5h18.85a5.757 5.757 0 0 1 5.759 5.5l1.909 41.146a5.763 5.763 0 0 1 -5.758 6.031zm-20.764-51.674a4.757 4.757 0 0 0 -4.753 4.543l-1.91 41.146a4.763 4.763 0 0 0 4.759 4.985h22.668a4.763 4.763 0 0 0 4.759-4.985l-1.909-41.146a4.758 4.758 0 0 0 -4.76-4.543z"/><path d="m58.017 55.813a.5.5 0 0 1 -.454-.71 7.653 7.653 0 0 0 .709-3.615l-.172-3.837a.5.5 0 0 1 .477-.523.489.489 0 0 1 .522.477l.176 3.837a8.65 8.65 0 0 1 -.8 4.081.5.5 0 0 1 -.458.29z"/><path d="m23.7 5.583a.5.5 0 0 1 -.367-.839 8.777 8.777 0 0 1 6.425-2.806h1.342a.5.5 0 0 1 0 1h-1.347a7.771 7.771 0 0 0 -5.69 2.485.5.5 0 0 1 -.363.16z"/><path d="m34.337 2.938h-.875a.5.5 0 1 1 0-1h.875a.5.5 0 0 1 0 1z"/><path d="m58.471 45.821a.5.5 0 0 1 -.5-.476l-.036-.777a.5.5 0 0 1 .476-.523.491.491 0 0 1 .523.476l.036.777a.5.5 0 0 1 -.476.523z"/></g><path d="m26 43.529h-.038a.65.65 0 0 1 -.611-.687l.593-7.361a.66.66 0 0 1 .686-.612.651.651 0 0 1 .612.687l-.593 7.362a.651.651 0 0 1 -.649.611z" fill="#fff"/><path d="m26.76 33.792h-.027a.649.649 0 0 1 -.609-.688l.047-.429a.628.628 0 0 1 .688-.609.649.649 0 0 1 .609.688l-.047.429a.65.65 0 0 1 -.661.609z" fill="#fff"/></svg>