<svg height="512" viewBox="0 0 64 64" width="512" xmlns="http://www.w3.org/2000/svg"><g id="Flat"><g id="Color_copy" data-name="Color copy"><rect fill="#fcf2ad" height="4" rx="2" width="34" x="15" y="27"/><path d="m18 31h28a0 0 0 0 1 0 0v5a5 5 0 0 1 -5 5h-18a5 5 0 0 1 -5-5v-5a0 0 0 0 1 0 0z" fill="#f9dbaf"/><path d="m41 41h-18l2 20h14z" fill="#f9dbaf"/><path d="m27 3 3.027.908a7.376 7.376 0 0 1 4.973 9.092h3.83a3.114 3.114 0 0 1 3.17 2.839 2.994 2.994 0 0 1 -.6 1.963.747.747 0 0 0 .6 1.198 4 4 0 0 1 4 4v4h-28v-4a4 4 0 0 1 4-4 .745.745 0 0 0 .622-1.171 3 3 0 0 1 1.21-4.593 5.609 5.609 0 0 0 2.253-1.592l1.1-1.38a4.975 4.975 0 0 0 .734-4.956z" fill="#ade8f4"/><path d="m23.832 13.236a3 3 0 0 0 -1.21 4.593.745.745 0 0 1 -.622 1.171h20a.747.747 0 0 1 -.6-1.2 2.994 2.994 0 0 0 .6-1.963l-10.8.118a11.035 11.035 0 0 1 -7.372-2.719z" fill="#48cae4"/><path d="m46 24v3h-28v-4a3.992 3.992 0 0 1 3.01-3.87 4.986 4.986 0 0 0 4.99 4.87z" fill="#48cae4"/><path d="m35 13-11.168.236a5.609 5.609 0 0 0 2.253-1.592l1.1-1.38a4.975 4.975 0 0 0 .734-4.956l-.919-2.308 3.384 2.161a1.845 1.845 0 0 1 .7 2.274l-.022.05a1.809 1.809 0 0 0 1.67 2.515 2.357 2.357 0 0 1 2.268 3z" fill="#48cae4"/><circle cx="37" cy="12" fill="#ff7373" r="3"/><path d="m39.87 12.87a3 3 0 1 1 -3.74-3.74 3.1 3.1 0 0 0 -.13.87 3 3 0 0 0 3 3 3.1 3.1 0 0 0 .87-.13z" fill="#ef5350"/><path d="m49 29a2.015 2.015 0 0 1 -2 2h-30a2.006 2.006 0 0 1 -2-2 2.015 2.015 0 0 1 2-2 2.006 2.006 0 0 0 2 2z" fill="#f9dbaf"/><path d="m23 34a4 4 0 0 0 4 4h18.59a5.029 5.029 0 0 1 -4.59 3h-18a5 5 0 0 1 -5-5v-5h28v2h-22a1 1 0 0 0 -1 1z" fill="#edb88e"/><path d="m41 41-.2 2h-4.07a7 7 0 0 0 -6.96 7.7l1.03 10.3h-5.8l-2-20z" fill="#edb88e"/><path d="m18 35.586v.414a4.965 4.965 0 0 0 .419 1.994l4.581-4.58 3.412 3.412-3.729 4.142c.107.007.209.032.317.032h2.345l2.483-2.758 2.758 2.758h3.759l2.483-2.758 2.758 2.758h1.414a4.923 4.923 0 0 0 1.24-.174l-4.073-4.073 3.4-3.774 4.261 4.261a4.923 4.923 0 0 0 .172-1.24v-1.414l-3.1-3.1.441-.49h-3.755l.562.563-3.4 3.774-3.318-3.317.915-1.016h-4.759l1.089 1.089-2.924 3.248-3.337-3.337 1-1h-4.828l1 1zm14.091-2.081 3.321 3.321-2.924 3.248-3.321-3.321z" fill="#edb88e"/><path d="m38 11a1.019 1.019 0 0 1 -.319-.052 1 1 0 0 1 -.629-1.267l.052-.154a5.193 5.193 0 0 1 1.984-2.627 1 1 0 1 1 1.129 1.652 3.136 3.136 0 0 0 -1.217 1.61l-.053.157a1 1 0 0 1 -.947.681z" fill="#ef5350"/><circle cx="38" cy="22" fill="#ef5350" r="1"/><circle cx="23" cy="25" fill="#fcea42" r="1"/><circle cx="28" cy="15" fill="#ef5350" r="1"/><path d="m31 24h-2a1 1 0 0 1 0-2h2a1 1 0 0 1 0 2z" fill="#ef5350"/><path d="m35 20a1 1 0 0 1 -.448-1.895l2-1a1 1 0 1 1 .894 1.79l-2 1a1 1 0 0 1 -.446.105z" fill="#fcea42"/><path d="m40.6 44.984-4.6 4.6-4.086-4.084 4.5-4.5h-2.828l-3.086 3.086-3.086-3.086h-2.828l4.5 4.5-4.586 4.586-.657-.657.376 3.766.281-.281 4.086 4.086-3.624 3.624.038.376h2.414l2.586-2.586 2.586 2.586h2.828l-4-4 4.586-4.586 3.508 3.507.257-2.571-2.351-2.35 2.873-2.873zm-10.6 10.602-4.086-4.086 4.586-4.586 4.086 4.086z" fill="#edb88e"/><g fill="#da9367"><path d="m33.59 41-3.09 3.09-3.09-3.09h-2.82l4.5 4.5-4.59 4.59-.66-.66.38 3.76.28-.28 4.09 4.09-3.63 3.62.04.38h2.41l2.59-2.59.6.6-.36-3.66-.24.24-4.09-4.09 4.52-4.51a6.851 6.851 0 0 1 3.29-3.3l2.69-2.69z"/><path d="m29.855 33h4.559l-.984-.984.915-1.016h-4.759l1.089 1.089z"/><path d="m38.855 33h2.69l.02-.021.021.021h2.828l-1.51-1.51.441-.49h-3.759l.562.563z"/><path d="m23.126 33.54a.99.99 0 0 1 .874-.54h1.414l-1-1 1-1h-4.828l1 1-3.586 3.586v.414a4.965 4.965 0 0 0 .419 1.994l4.581-4.58z"/><path d="m34.355 38-1.867 2.074-2.074-2.074h-3.414a3.979 3.979 0 0 1 -1.405-.267l-2.912 3.235c.107.007.209.032.317.032h2.345l2.483-2.758 2.758 2.758h3.759l2.483-2.758 2.758 2.758h1.414a4.923 4.923 0 0 0 1.24-.174l-2.826-2.826z"/></g></g></g></svg>