<svg xmlns="http://www.w3.org/2000/svg" width="21.096" height="23.273" viewBox="0 0 21.096 23.273">
  <g id="Icon_feather-share-2" data-name="Icon feather-share-2" transform="translate(-3.75 -2.25)">
    <path id="Trazado_231" data-name="Trazado 231" d="M29.032,6.266A3.266,3.266,0,1,1,25.766,3,3.266,3.266,0,0,1,29.032,6.266Z" transform="translate(-4.936 0)" fill="none" stroke="#3c5dc9" stroke-linecap="round" stroke-linejoin="round" stroke-width="1.5"/>
    <path id="Trazado_232" data-name="Trazado 232" d="M11.032,16.766A3.266,3.266,0,1,1,7.766,13.5,3.266,3.266,0,0,1,11.032,16.766Z" transform="translate(0 -2.879)" fill="none" stroke="#3c5dc9" stroke-linecap="round" stroke-linejoin="round" stroke-width="1.5"/>
    <path id="Trazado_233" data-name="Trazado 233" d="M29.032,27.266A3.266,3.266,0,1,1,25.766,24,3.266,3.266,0,0,1,29.032,27.266Z" transform="translate(-4.936 -5.759)" fill="none" stroke="#3c5dc9" stroke-linecap="round" stroke-linejoin="round" stroke-width="1.5"/>
    <path id="Trazado_234" data-name="Trazado 234" d="M12.885,20.265,20.32,24.6" transform="translate(-2.299 -4.735)" fill="none" stroke="#3c5dc9" stroke-linecap="round" stroke-linejoin="round" stroke-width="1.5"/>
    <path id="Trazado_235" data-name="Trazado 235" d="M20.31,9.765,12.885,14.1" transform="translate(-2.299 -1.855)" fill="none" stroke="#3c5dc9" stroke-linecap="round" stroke-linejoin="round" stroke-width="1.5"/>
  </g>
</svg>
