<?xml version="1.0" encoding="utf-8"?>
<!-- Generator: Adobe Illustrator 24.0.2, SVG Export Plug-In . SVG Version: 6.00 Build 0)  -->
<svg version="1.1" id="Capa_1" xmlns="http://www.w3.org/2000/svg" xmlns:xlink="http://www.w3.org/1999/xlink" x="0px" y="0px"
	 viewBox="0 0 22.5 21.6" style="enable-background:new 0 0 22.5 21.6;" xml:space="preserve">
<style type="text/css">
	.st0{fill:none;stroke:#3C5CC9;stroke-width:1.5;stroke-linecap:round;stroke-linejoin:round;}
</style>
<g id="Icon_feather-shopping-cart" transform="translate(0.75 0.75)">
	<path id="Trazado_31" class="st0" d="M8.6,19.1c0,0.5-0.4,1-1,1s-1-0.4-1-1s0.4-1,1-1l0,0C8.2,18.1,8.6,18.6,8.6,19.1z"/>
	<path id="Trazado_32" class="st0" d="M19.1,19.1c0,0.5-0.4,1-1,1s-1-0.4-1-1s0.4-1,1-1l0,0C18.7,18.1,19.1,18.6,19.1,19.1z"/>
	<path id="Trazado_33" class="st0" d="M0,0h3.8l2.6,12.8c0.2,0.9,1,1.6,1.9,1.5h9.3c0.9,0,1.7-0.6,1.9-1.5l1.5-8H4.8"/>
</g>
</svg>
