<svg height="512pt" viewBox="0 0 512 512" width="512pt" xmlns="http://www.w3.org/2000/svg"><path d="m512 256c0 141.386719-114.613281 256-256 256s-256-114.613281-256-256 114.613281-256 256-256 256 114.613281 256 256zm0 0" fill="#ff0335"/><path d="m510.710938 281.832031c-33.84375-33.984375-204.714844-204.65625-204.714844-204.65625-15.738282-17.269531-39.550782-33.074219-68.550782-42.585937 0 0 15.785157 38.121094-17.457031 53.175781-26.75 12.117187-38.527343 29.6875-33.832031 44.574219-14.789062 3.070312-25.980469 16.136718-25.980469 31.671875 0 8.414062 3.289063 16.105469 8.65625 21.878906-15.234375.988281-27.398437 13.992187-27.398437 29.75 0 8.367187 3.425781 15.953125 8.921875 21.378906l7.707031 7.707031v46.753907l38.769531 38.175781 59.167969 144.421875 35.464844 35.46875c116.199218-16.109375 207.46875-110.1875 219.246094-227.714844zm0 0" fill="#901"/><path d="m343.167969 185.886719c5.367187-5.769531 8.65625-13.460938 8.65625-21.878907 0-15.796874-11.582031-29.039062-26.746094-31.8125 10.628906-30.75-27.277344-77.808593-87.632813-97.605468 0 0 15.785157 38.121094-17.457031 53.175781-26.75 12.117187-38.527343 29.6875-33.832031 44.574219-14.789062 3.070312-25.980469 16.136718-25.980469 31.667968 0 8.417969 3.289063 16.109376 8.65625 21.882813-15.234375.988281-27.398437 13.988281-27.398437 29.75 0 16.402344 13.167968 29.820313 29.265625 29.820313h170.605469c16.09375 0 29.265624-13.417969 29.265624-29.820313-.003906-15.761719-12.167968-28.761719-27.402343-29.753906zm0 0" fill="#fff"/><path d="m370.570312 215.644531c0 11.796875-6.8125 22.046875-16.632812 26.878907-3.828125 1.878906-8.117188 2.941406-12.636719 2.941406h-85.300781v-203.652344c49.347656 22.449219 78.570312 62.921875 69.078125 90.378906 15.160156 2.78125 26.75 16.023438 26.75 31.820313 0 8.410156-3.300781 16.101562-8.660156 21.871093 7.609375.488282 14.472656 3.988282 19.410156 9.339844 4.949219 5.351563 7.992187 12.539063 7.992187 20.421875zm0 0" fill="#fff7d6"/><path d="m178.808594 285.667969 77.191406 188.410156 77.191406-188.410156zm0 0" fill="#ffb74f"/><path d="m333.1875 285.664062-2.378906 5.808594-74.808594 182.609375v-188.417969zm0 0" fill="#ff9a00"/><path d="m158.058594 242.507812h195.878906v48.96875h-195.878906zm0 0" fill="#ffdba9"/><path d="m256 242.503906h97.9375v48.96875h-97.9375zm0 0" fill="#ffc473"/></svg>