<svg xmlns="http://www.w3.org/2000/svg" width="80" height="18.075" viewBox="0 0 80 18.075">
  <g id="Grupo_158" data-name="Grupo 158" transform="translate(-800 -287)">
    <text id="Google" transform="translate(854 301)" fill="#1c1f33" font-size="14" font-family="Montserrat-Bold, Montserrat" font-weight="700"><tspan x="-25.991" y="0">Google</tspan></text>
    <g id="Grupo_156" data-name="Grupo 156" transform="translate(800 287.051)">
      <path id="Trazado_135" data-name="Trazado 135" d="M3.994,144.293l-.627,2.342-2.293.049a9.028,9.028,0,0,1-.066-8.415h0l2.041.374.894,2.029a5.378,5.378,0,0,0,.051,3.621Z" transform="translate(0 -133.401)" fill="#fbbb00"/>
      <path id="Trazado_136" data-name="Trazado 136" d="M270.284,208.176a9.009,9.009,0,0,1-3.213,8.711h0l-2.571-.131-.364-2.272a5.371,5.371,0,0,0,2.311-2.743h-4.819v-3.565h8.656Z" transform="translate(-252.418 -200.848)" fill="#518ef8"/>
      <path id="Trazado_137" data-name="Trazado 137" d="M44.088,314.556h0a9.015,9.015,0,0,1-13.58-2.757l2.92-2.391a5.36,5.36,0,0,0,7.724,2.744Z" transform="translate(-29.435 -298.517)" fill="#28b446"/>
      <path id="Trazado_138" data-name="Trazado 138" d="M42.381,2.075l-2.919,2.39a5.359,5.359,0,0,0-7.9,2.806l-2.936-2.4h0A9.014,9.014,0,0,1,42.381,2.075Z" transform="translate(-27.616)" fill="#f14336"/>
    </g>
  </g>
</svg>
